<svg width="20" height="21" viewBox="0 0 20 21" fill="none" xmlns="http://www.w3.org/2000/svg">
<path d="M15.8333 3.83331H4.16667C3.50363 3.83331 2.86774 4.09671 2.3989 4.56555C1.93006 5.03439 1.66667 5.67027 1.66667 6.33331V14.6666C1.66667 15.3297 1.93006 15.9656 2.3989 16.4344C2.86774 16.9033 3.50363 17.1666 4.16667 17.1666H15.8333C16.4964 17.1666 17.1323 16.9033 17.6011 16.4344C18.0699 15.9656 18.3333 15.3297 18.3333 14.6666V6.33331C18.3333 5.67027 18.0699 5.03439 17.6011 4.56555C17.1323 4.09671 16.4964 3.83331 15.8333 3.83331ZM15.4917 5.49998L10.5917 10.4C10.5142 10.4781 10.422 10.5401 10.3205 10.5824C10.2189 10.6247 10.11 10.6465 10 10.6465C9.88999 10.6465 9.78107 10.6247 9.67952 10.5824C9.57797 10.5401 9.4858 10.4781 9.40833 10.4L4.50833 5.49998H15.4917ZM16.6667 14.6666C16.6667 14.8877 16.5789 15.0996 16.4226 15.2559C16.2663 15.4122 16.0543 15.5 15.8333 15.5H4.16667C3.94565 15.5 3.73369 15.4122 3.57741 15.2559C3.42113 15.0996 3.33333 14.8877 3.33333 14.6666V6.67498L8.23333 11.575C8.70209 12.0431 9.3375 12.3061 10 12.3061C10.6625 12.3061 11.2979 12.0431 11.7667 11.575L16.6667 6.67498V14.6666Z" fill="black"/>
</svg>
